REM DIRINDEX 1\2,1\3,1\4,1\5
REM DIRNAME folder01,folder02,folder03,folder04,folder05
TITLE ""
FILE "Round-12-286-287.mp3" MP3
  TRACK 01 AUDIO
    TITLE "0:"
    INDEX 01 00:00:00
  TRACK 02 AUDIO
    TITLE "2:cjc093_3152"
    INDEX 01 00:00:01
  TRACK 03 AUDIO
    TITLE "0:"
    INDEX 01 00:01:11
  TRACK 04 AUDIO
    TITLE "3:cjc093_3153"
    INDEX 01 00:01:44
  TRACK 05 AUDIO
    TITLE "0:"
    INDEX 01 00:03:29
  TRACK 06 AUDIO
    TITLE "4:cjc093_3154"
    INDEX 01 00:03:55
  TRACK 07 AUDIO
    TITLE "0:"
    INDEX 01 00:06:69
  TRACK 08 AUDIO
    TITLE "3:cjc093_3155"
    INDEX 01 00:08:07
  TRACK 09 AUDIO
    TITLE "0:"
    INDEX 01 00:10:00
  TRACK 10 AUDIO
    TITLE "4:cjc093_3156"
    INDEX 01 00:10:06
  TRACK 11 AUDIO
    TITLE "0:"
    INDEX 01 00:12:48
  TRACK 12 AUDIO
    TITLE "2:cjc093_3157"
    INDEX 01 00:13:59
  TRACK 13 AUDIO
    TITLE "0:"
    INDEX 01 00:14:66
  TRACK 14 AUDIO
    TITLE "3:cjc093_3158"
    INDEX 01 00:15:40
  TRACK 15 AUDIO
    TITLE "0:"
    INDEX 01 00:17:63
  TRACK 16 AUDIO
    TITLE "4:cjc093_3159"
    INDEX 01 00:18:05
  TRACK 17 AUDIO
    TITLE "0:"
    INDEX 01 00:21:62
  TRACK 18 AUDIO
    TITLE "2:cjc093_3160"
    INDEX 01 00:22:74
  TRACK 19 AUDIO
    TITLE "0:"
    INDEX 01 00:24:18
  TRACK 20 AUDIO
    TITLE "3:cjc093_3161"
    INDEX 01 00:24:49
  TRACK 21 AUDIO
    TITLE "0:"
    INDEX 01 00:26:71
  TRACK 22 AUDIO
    TITLE "4:cjc093_3162"
    INDEX 01 00:27:00
  TRACK 23 AUDIO
    TITLE "0:"
    INDEX 01 00:32:60
  TRACK 24 AUDIO
    TITLE "2:cjc093_3163"
    INDEX 01 00:33:69
  TRACK 25 AUDIO
    TITLE "0:"
    INDEX 01 00:35:04
  TRACK 26 AUDIO
    TITLE "3:cjc093_3164"
    INDEX 01 00:35:41
  TRACK 27 AUDIO
    TITLE "0:"
    INDEX 01 00:37:12
  TRACK 28 AUDIO
    TITLE "4:cjc093_3165"
    INDEX 01 00:37:28
  TRACK 29 AUDIO
    TITLE "0:"
    INDEX 01 00:39:68
  TRACK 30 AUDIO
    TITLE "3:cjc093_3166"
    INDEX 01 00:41:04
  TRACK 31 AUDIO
    TITLE "0:"
    INDEX 01 00:42:02
  TRACK 32 AUDIO
    TITLE "4:cjc093_3167"
    INDEX 01 00:42:19
  TRACK 33 AUDIO
    TITLE "0:"
    INDEX 01 00:45:73
  TRACK 34 AUDIO
    TITLE "2:cjc093_3168"
    INDEX 01 00:47:11
  TRACK 35 AUDIO
    TITLE "0:"
    INDEX 01 00:48:28
  TRACK 36 AUDIO
    TITLE "3:cjc093_3169"
    INDEX 01 00:48:57
  TRACK 37 AUDIO
    TITLE "0:"
    INDEX 01 00:50:33
  TRACK 38 AUDIO
    TITLE "4:cjc093_3170"
    INDEX 01 00:50:66
  TRACK 39 AUDIO
    TITLE "0:"
    INDEX 01 00:54:56
  TRACK 40 AUDIO
    TITLE "2:cjc093_3171"
    INDEX 01 00:55:67
  TRACK 41 AUDIO
    TITLE "0:"
    INDEX 01 00:57:01
  TRACK 42 AUDIO
    TITLE "3:cjc093_3172"
    INDEX 01 00:57:35
  TRACK 43 AUDIO
    TITLE "0:"
    INDEX 01 00:59:10
  TRACK 44 AUDIO
    TITLE "4:cjc093_3173"
    INDEX 01 00:59:12
  TRACK 45 AUDIO
    TITLE "0:"
    INDEX 01 01:01:60
  TRACK 46 AUDIO
    TITLE "2:cjc093_3174"
    INDEX 01 01:02:71
  TRACK 47 AUDIO
    TITLE "0:"
    INDEX 01 01:03:71
  TRACK 48 AUDIO
    TITLE "3:cjc093_3175"
    INDEX 01 01:04:45
  TRACK 49 AUDIO
    TITLE "0:"
    INDEX 01 01:06:51
  TRACK 50 AUDIO
    TITLE "4:cjc093_3176"
    INDEX 01 01:07:02
  TRACK 51 AUDIO
    TITLE "0:"
    INDEX 01 01:10:39
  TRACK 52 AUDIO
    TITLE "3:cjc093_3177"
    INDEX 01 01:11:52
  TRACK 53 AUDIO
    TITLE "0:"
    INDEX 01 01:13:44
  TRACK 54 AUDIO
    TITLE "4:cjc093_3178"
    INDEX 01 01:13:61
  TRACK 55 AUDIO
    TITLE "0:"
    INDEX 01 01:17:47
  TRACK 56 AUDIO
    TITLE "2:cjc093_3179"
    INDEX 01 01:18:58
  TRACK 57 AUDIO
    TITLE "0:"
    INDEX 01 01:19:64
  TRACK 58 AUDIO
    TITLE "3:cjc093_3180"
    INDEX 01 01:20:30
  TRACK 59 AUDIO
    TITLE "0:"
    INDEX 01 01:22:13
  TRACK 60 AUDIO
    TITLE "4:cjc093_3181"
    INDEX 01 01:22:39
  TRACK 61 AUDIO
    TITLE "0:"
    INDEX 01 01:25:57
